<?xml version="1.0" encoding="utf-8"?>
<!-- Generator: Adobe Illustrator 25.2.1, SVG Export Plug-In . SVG Version: 6.00 Build 0)  -->
<svg version="1.1" id="Capa_1" xmlns="http://www.w3.org/2000/svg" xmlns:xlink="http://www.w3.org/1999/xlink" x="0px" y="0px"
	 viewBox="0 0 1080 1080" style="enable-background:new 0 0 1080 1080;" xml:space="preserve">
<style type="text/css">
	.st0{fill:#FFFFFF;}
</style>
<path class="st0" d="M567.44,333.51l125.58-68.02c12.18-6.6,16.3-22.07,9.02-33.86L571.2,19.83c-9.5-15.38-31.93-15.21-41.2,0.32
	L403.54,232.06c-7.12,11.93-2.7,27.4,9.65,33.77l131.73,67.91C552,337.39,560.43,337.31,567.44,333.51z"/>
<path class="st0" d="M567.44,710.02l125.58,68.02c12.18,6.6,16.3,22.07,9.02,33.86L571.2,1023.7c-9.5,15.38-31.93,15.21-41.2-0.32
	L403.54,811.48c-7.12-11.93-2.7-27.4,9.65-33.77l131.73-67.91C552,706.14,560.43,706.23,567.44,710.02z"/>
<path class="st0" d="M368,537.85l-68.02,125.58c-6.6,12.18-22.07,16.3-33.86,9.02L54.33,541.61c-15.38-9.5-15.21-31.93,0.32-41.2
	l211.91-126.47c11.93-7.12,27.4-2.7,33.77,9.65l67.91,131.73C371.89,522.41,371.8,530.84,368,537.85z"/>
<path class="st0" d="M739.87,537.85l68.02,125.58c6.6,12.18,22.07,16.3,33.86,9.02l211.8-130.84c15.38-9.5,15.21-31.93-0.32-41.2
	L841.32,373.95c-11.93-7.12-27.4-2.7-33.77,9.65l-67.91,131.73C735.99,522.41,736.07,530.84,739.87,537.85z"/>
</svg>
